<svg xmlns="http://www.w3.org/2000/svg" width="500" height="500" version="1.0" viewBox="0 0 375 375"><defs><clipPath id="a"><path d="M84.64 267.074h262.77V374.97H84.64Zm0 0"/></clipPath><clipPath id="b"><path d="M317 95h30.555v35H317Zm0 0"/></clipPath></defs><path fill="#a280ff" d="M233.352 236.777c34.043-34.082 59.726-71.015 75.003-105.078h.008c6.825-15.191 11.567-29.812 14.067-43.355 4.996-27.078 1.011-49.848-13.387-64.27-21.856-21.867-62.875-19.742-108.984 1.34 8.558.172 17.129.957 25.527 2.34 3.953.66 7.93 1.45 11.832 2.363 23.926-7.98 43.203-7.558 53.871 3.125 5.945 5.946 8.703 14.57 8.602 25.192a64.138 64.138 0 0 1-.164 4.004l-.028.394c-.023.262-.039.52-.07.781-.035.395-.074.797-.113 1.192a95.46 95.46 0 0 1-.293 2.43 83.585 83.585 0 0 1-.805 4.831c-3.195 16.594-11.543 36.41-24.219 57.68a291.088 291.088 0 0 1-5.449 8.824c-.297.473-.602.942-.91 1.418a322.315 322.315 0 0 1-4.875 7.344c-14.469 21.227-32.785 43.363-54.223 64.813-23.101 23.136-47.02 42.648-69.73 57.613a310.414 310.414 0 0 1-6.082 3.922l-1.535.953a151.49 151.49 0 0 1-2.653 1.633c-.887.543-1.762 1.074-2.64 1.586-.883.53-1.758 1.046-2.63 1.543a220.636 220.636 0 0 1-5.511 3.125c-.758.433-1.52.847-2.277 1.242-20.512 11.086-39.301 17.777-54.641 19.281a62.29 62.29 0 0 1-3.715.27 60.01 60.01 0 0 1-2.703.062c-.402 0-.781 0-1.145-.016-.238 0-.476-.007-.722-.015l-.5-.024a24.549 24.549 0 0 1-1.203-.066l-.22-.016a43.7 43.7 0 0 1-2.858-.289c-7.34-.972-13.426-3.652-17.961-8.183-9.235-9.243-10.786-24.926-5.871-44.508a180.791 180.791 0 0 1-2.907-12.7 177.454 177.454 0 0 1-2.957-25.038C.953 254.94.45 292.113 20.86 312.54c13.098 13.108 33.106 17.6 56.97 14.542 25.562-3.281 55.554-15.21 86.222-34.48 23.25-14.59 46.898-33.399 69.3-55.825"/><g clip-path="url(#a)"><path fill="#0f6292" d="M196.418 298.313c-7.95 0-15.664-.985-23.035-2.84a310.513 310.513 0 0 1-5.371 3.441c-29.172 18.328-57.758 30.227-83.102 34.625 29.922 25.816 68.899 41.43 111.508 41.43 65.437 0 122.281-36.813 150.992-90.887l-81.265-16.617c-17.239 18.953-42.09 30.848-69.727 30.848"/></g><g clip-path="url(#b)"><path fill="#0f6292" d="M347.41 123.727a170.781 170.781 0 0 0-18.828-28.274c-2.465 10.98-6.25 22.524-11.297 34.43l30.125-6.156"/></g><path fill="#0f6292" d="M31.848 250.203a170.236 170.236 0 0 0 20.441 45.656 38 38 0 0 0 2.336.063c.773 0 1.57-.016 2.379-.055 18.164-.797 43.133-10.57 70.457-27.562-15.73-16.868-25.36-39.512-25.36-64.403 0-52.144 42.227-94.414 94.317-94.414 25.34 0 48.352 10.004 65.281 26.29 16.895-26.16 27.594-50.848 30.149-69.548.172-1.27.32-2.593.425-3.964a169.597 169.597 0 0 0-67.894-27.153 171.778 171.778 0 0 0-27.961-2.281c-4.086 0-8.121.14-12.137.422h-.015c-.52.039-1.047.078-1.567.121-84.894 6.746-152.316 75.594-156.91 161.164a41.677 41.677 0 0 0-.082 1.527v.008a148.541 148.541 0 0 0-.187 7.828c0 11.028 1.035 21.809 3.03 32.258a171.029 171.029 0 0 0 3.298 14.043"/><path fill="#030d4e" d="m126.115 155.027-14.895 57.902-16.004-57.902H77.4l-15.867 58.18-15.032-58.18H27.154l22.828 83.512h21.156l15.168-58.735 15.172 58.735h21.156l22.825-83.512Zm80.13 83.512h19.625l-30.067-83.512h-20.597l-30.063 83.512h19.625l5.149-15.727h31.175Zm-31.457-31.04 10.719-33.124L196.22 207.5Zm111.172-52.472-19.902 59.71-19.902-59.71h-20.461l30.062 83.512h20.598l30.066-83.512Zm81.247 16.148v-16.148h-50.246v83.512h50.246v-16.145h-31.87v-17.539h27.276v-16.144h-27.277v-17.536Zm0 0"/></svg>